<mxfile host="app.diagrams.net" modified="2022-01-12T04:32:23.300Z" agent="5.0 (Windows NT 10.0; Win64; x64) AppleWebKit/537.36 (KHTML, like Gecko) Chrome/97.0.4692.71 Safari/537.36" etag="f5cjIkh5C-LWzJ-YjuKQ" version="16.2.4" type="github">
  <diagram id="C5RBs43oDa-KdzZeNtuy" name="Page-1">
    <mxGraphModel dx="2714" dy="995" grid="1" gridSize="10" guides="1" tooltips="1" connect="1" arrows="1" fold="1" page="1" pageScale="1" pageWidth="827" pageHeight="1169" math="0" shadow="0">
      <root>
        <mxCell id="WIyWlLk6GJQsqaUBKTNV-0" />
        <mxCell id="WIyWlLk6GJQsqaUBKTNV-1" parent="WIyWlLk6GJQsqaUBKTNV-0" />
        <mxCell id="eafishzCkPLg1H7SB-tg-16" value="" style="edgeStyle=orthogonalEdgeStyle;rounded=0;orthogonalLoop=1;jettySize=auto;html=1;" edge="1" parent="WIyWlLk6GJQsqaUBKTNV-1" source="WIyWlLk6GJQsqaUBKTNV-3" target="eafishzCkPLg1H7SB-tg-15">
          <mxGeometry relative="1" as="geometry" />
        </mxCell>
        <mxCell id="WIyWlLk6GJQsqaUBKTNV-3" value="开始" style="rounded=1;whiteSpace=wrap;html=1;fontSize=12;glass=0;strokeWidth=1;shadow=0;" parent="WIyWlLk6GJQsqaUBKTNV-1" vertex="1">
          <mxGeometry x="150" y="70" width="120" height="40" as="geometry" />
        </mxCell>
        <mxCell id="eafishzCkPLg1H7SB-tg-14" value="" style="edgeStyle=orthogonalEdgeStyle;rounded=0;orthogonalLoop=1;jettySize=auto;html=1;" edge="1" parent="WIyWlLk6GJQsqaUBKTNV-1" source="eafishzCkPLg1H7SB-tg-11" target="eafishzCkPLg1H7SB-tg-13">
          <mxGeometry relative="1" as="geometry" />
        </mxCell>
        <mxCell id="eafishzCkPLg1H7SB-tg-11" value="下滑界面" style="rounded=0;whiteSpace=wrap;html=1;" vertex="1" parent="WIyWlLk6GJQsqaUBKTNV-1">
          <mxGeometry x="150" y="270" width="120" height="60" as="geometry" />
        </mxCell>
        <mxCell id="eafishzCkPLg1H7SB-tg-19" value="" style="edgeStyle=orthogonalEdgeStyle;rounded=0;orthogonalLoop=1;jettySize=auto;html=1;" edge="1" parent="WIyWlLk6GJQsqaUBKTNV-1" source="eafishzCkPLg1H7SB-tg-13" target="eafishzCkPLg1H7SB-tg-18">
          <mxGeometry relative="1" as="geometry" />
        </mxCell>
        <mxCell id="eafishzCkPLg1H7SB-tg-13" value="点击小程序" style="rounded=0;whiteSpace=wrap;html=1;" vertex="1" parent="WIyWlLk6GJQsqaUBKTNV-1">
          <mxGeometry x="150" y="370" width="120" height="60" as="geometry" />
        </mxCell>
        <mxCell id="eafishzCkPLg1H7SB-tg-17" value="" style="edgeStyle=orthogonalEdgeStyle;rounded=0;orthogonalLoop=1;jettySize=auto;html=1;" edge="1" parent="WIyWlLk6GJQsqaUBKTNV-1" source="eafishzCkPLg1H7SB-tg-15" target="eafishzCkPLg1H7SB-tg-11">
          <mxGeometry relative="1" as="geometry" />
        </mxCell>
        <mxCell id="eafishzCkPLg1H7SB-tg-15" value="打开微信" style="rounded=0;whiteSpace=wrap;html=1;" vertex="1" parent="WIyWlLk6GJQsqaUBKTNV-1">
          <mxGeometry x="150" y="160" width="120" height="60" as="geometry" />
        </mxCell>
        <mxCell id="eafishzCkPLg1H7SB-tg-22" value="" style="edgeStyle=orthogonalEdgeStyle;rounded=0;orthogonalLoop=1;jettySize=auto;html=1;" edge="1" parent="WIyWlLk6GJQsqaUBKTNV-1" source="eafishzCkPLg1H7SB-tg-18" target="eafishzCkPLg1H7SB-tg-21">
          <mxGeometry relative="1" as="geometry" />
        </mxCell>
        <mxCell id="eafishzCkPLg1H7SB-tg-87" value="" style="edgeStyle=orthogonalEdgeStyle;rounded=0;orthogonalLoop=1;jettySize=auto;html=1;labelBorderColor=none;fontFamily=Helvetica;" edge="1" parent="WIyWlLk6GJQsqaUBKTNV-1" source="eafishzCkPLg1H7SB-tg-18" target="eafishzCkPLg1H7SB-tg-86">
          <mxGeometry relative="1" as="geometry" />
        </mxCell>
        <mxCell id="eafishzCkPLg1H7SB-tg-18" value="开始游戏" style="rounded=0;whiteSpace=wrap;html=1;" vertex="1" parent="WIyWlLk6GJQsqaUBKTNV-1">
          <mxGeometry x="150" y="470" width="120" height="60" as="geometry" />
        </mxCell>
        <mxCell id="eafishzCkPLg1H7SB-tg-52" style="edgeStyle=orthogonalEdgeStyle;rounded=0;orthogonalLoop=1;jettySize=auto;html=1;labelBorderColor=none;fontFamily=Helvetica;entryX=0;entryY=0.5;entryDx=0;entryDy=0;startArrow=none;" edge="1" parent="WIyWlLk6GJQsqaUBKTNV-1" target="eafishzCkPLg1H7SB-tg-30">
          <mxGeometry relative="1" as="geometry">
            <mxPoint x="400" y="740" as="targetPoint" />
            <mxPoint x="400" y="650" as="sourcePoint" />
            <Array as="points">
              <mxPoint x="400" y="710" />
            </Array>
          </mxGeometry>
        </mxCell>
        <mxCell id="eafishzCkPLg1H7SB-tg-21" value="是否通过第n阶段" style="rhombus;whiteSpace=wrap;html=1;" vertex="1" parent="WIyWlLk6GJQsqaUBKTNV-1">
          <mxGeometry x="340" y="460" width="120" height="80" as="geometry" />
        </mxCell>
        <mxCell id="eafishzCkPLg1H7SB-tg-29" value="" style="edgeStyle=orthogonalEdgeStyle;rounded=0;orthogonalLoop=1;jettySize=auto;html=1;labelBorderColor=none;fontFamily=Helvetica;" edge="1" parent="WIyWlLk6GJQsqaUBKTNV-1" source="eafishzCkPLg1H7SB-tg-23" target="eafishzCkPLg1H7SB-tg-28">
          <mxGeometry relative="1" as="geometry" />
        </mxCell>
        <mxCell id="eafishzCkPLg1H7SB-tg-31" value="" style="edgeStyle=orthogonalEdgeStyle;rounded=0;orthogonalLoop=1;jettySize=auto;html=1;labelBorderColor=none;fontFamily=Helvetica;" edge="1" parent="WIyWlLk6GJQsqaUBKTNV-1" source="eafishzCkPLg1H7SB-tg-23" target="eafishzCkPLg1H7SB-tg-30">
          <mxGeometry relative="1" as="geometry" />
        </mxCell>
        <mxCell id="eafishzCkPLg1H7SB-tg-23" value="进入下一阶段" style="rounded=0;whiteSpace=wrap;html=1;" vertex="1" parent="WIyWlLk6GJQsqaUBKTNV-1">
          <mxGeometry x="550" y="470" width="120" height="60" as="geometry" />
        </mxCell>
        <mxCell id="eafishzCkPLg1H7SB-tg-26" value="" style="edgeStyle=orthogonalEdgeStyle;rounded=0;orthogonalLoop=1;jettySize=auto;html=1;fontFamily=Helvetica;labelBorderColor=none;startArrow=none;" edge="1" parent="WIyWlLk6GJQsqaUBKTNV-1" source="eafishzCkPLg1H7SB-tg-27" target="eafishzCkPLg1H7SB-tg-23">
          <mxGeometry relative="1" as="geometry">
            <Array as="points">
              <mxPoint x="480" y="500" />
            </Array>
          </mxGeometry>
        </mxCell>
        <mxCell id="eafishzCkPLg1H7SB-tg-33" value="" style="edgeStyle=orthogonalEdgeStyle;rounded=0;orthogonalLoop=1;jettySize=auto;html=1;labelBorderColor=none;fontFamily=Helvetica;" edge="1" parent="WIyWlLk6GJQsqaUBKTNV-1" source="eafishzCkPLg1H7SB-tg-28" target="eafishzCkPLg1H7SB-tg-32">
          <mxGeometry relative="1" as="geometry" />
        </mxCell>
        <mxCell id="eafishzCkPLg1H7SB-tg-28" value="弹窗显示&lt;br&gt;领取奖励" style="shape=parallelogram;perimeter=parallelogramPerimeter;whiteSpace=wrap;html=1;fixedSize=1;fontFamily=Helvetica;" vertex="1" parent="WIyWlLk6GJQsqaUBKTNV-1">
          <mxGeometry x="550" y="340" width="120" height="60" as="geometry" />
        </mxCell>
        <mxCell id="eafishzCkPLg1H7SB-tg-58" value="" style="edgeStyle=orthogonalEdgeStyle;rounded=0;orthogonalLoop=1;jettySize=auto;html=1;labelBorderColor=none;fontFamily=Helvetica;" edge="1" parent="WIyWlLk6GJQsqaUBKTNV-1" source="eafishzCkPLg1H7SB-tg-30" target="eafishzCkPLg1H7SB-tg-57">
          <mxGeometry relative="1" as="geometry" />
        </mxCell>
        <mxCell id="eafishzCkPLg1H7SB-tg-30" value="弹窗显示5秒&lt;br&gt;优惠券广告" style="shape=parallelogram;perimeter=parallelogramPerimeter;whiteSpace=wrap;html=1;fixedSize=1;rounded=0;" vertex="1" parent="WIyWlLk6GJQsqaUBKTNV-1">
          <mxGeometry x="550" y="680" width="120" height="60" as="geometry" />
        </mxCell>
        <mxCell id="eafishzCkPLg1H7SB-tg-35" value="" style="edgeStyle=orthogonalEdgeStyle;rounded=0;orthogonalLoop=1;jettySize=auto;html=1;labelBorderColor=none;fontFamily=Helvetica;startArrow=none;" edge="1" parent="WIyWlLk6GJQsqaUBKTNV-1" source="eafishzCkPLg1H7SB-tg-36" target="eafishzCkPLg1H7SB-tg-34">
          <mxGeometry relative="1" as="geometry" />
        </mxCell>
        <mxCell id="eafishzCkPLg1H7SB-tg-38" value="" style="edgeStyle=orthogonalEdgeStyle;rounded=0;orthogonalLoop=1;jettySize=auto;html=1;labelBorderColor=none;fontFamily=Helvetica;startArrow=none;entryX=0.5;entryY=0;entryDx=0;entryDy=0;" edge="1" parent="WIyWlLk6GJQsqaUBKTNV-1" source="eafishzCkPLg1H7SB-tg-39" target="eafishzCkPLg1H7SB-tg-73">
          <mxGeometry relative="1" as="geometry">
            <mxPoint x="990" y="370" as="targetPoint" />
          </mxGeometry>
        </mxCell>
        <mxCell id="eafishzCkPLg1H7SB-tg-32" value="是否&lt;br&gt;领取" style="rhombus;whiteSpace=wrap;html=1;" vertex="1" parent="WIyWlLk6GJQsqaUBKTNV-1">
          <mxGeometry x="780" y="340" width="80" height="60" as="geometry" />
        </mxCell>
        <mxCell id="eafishzCkPLg1H7SB-tg-34" value="开始下一阶段游戏" style="whiteSpace=wrap;html=1;" vertex="1" parent="WIyWlLk6GJQsqaUBKTNV-1">
          <mxGeometry x="760" y="490" width="120" height="60" as="geometry" />
        </mxCell>
        <mxCell id="eafishzCkPLg1H7SB-tg-39" value="是" style="text;html=1;resizable=0;autosize=1;align=center;verticalAlign=middle;points=[];fillColor=none;strokeColor=none;rounded=0;fontFamily=Helvetica;" vertex="1" parent="WIyWlLk6GJQsqaUBKTNV-1">
          <mxGeometry x="1120" y="360" width="30" height="20" as="geometry" />
        </mxCell>
        <mxCell id="eafishzCkPLg1H7SB-tg-40" value="" style="edgeStyle=orthogonalEdgeStyle;rounded=0;orthogonalLoop=1;jettySize=auto;html=1;labelBorderColor=none;fontFamily=Helvetica;endArrow=none;" edge="1" parent="WIyWlLk6GJQsqaUBKTNV-1" source="eafishzCkPLg1H7SB-tg-32" target="eafishzCkPLg1H7SB-tg-39">
          <mxGeometry relative="1" as="geometry">
            <mxPoint x="860" y="370" as="sourcePoint" />
            <mxPoint x="920" y="370" as="targetPoint" />
          </mxGeometry>
        </mxCell>
        <mxCell id="eafishzCkPLg1H7SB-tg-27" value="是" style="text;html=1;resizable=0;autosize=1;align=center;verticalAlign=middle;points=[];fillColor=none;strokeColor=none;rounded=0;fontFamily=Helvetica;" vertex="1" parent="WIyWlLk6GJQsqaUBKTNV-1">
          <mxGeometry x="480" y="490" width="30" height="20" as="geometry" />
        </mxCell>
        <mxCell id="eafishzCkPLg1H7SB-tg-42" value="" style="edgeStyle=orthogonalEdgeStyle;rounded=0;orthogonalLoop=1;jettySize=auto;html=1;fontFamily=Helvetica;labelBorderColor=none;endArrow=none;" edge="1" parent="WIyWlLk6GJQsqaUBKTNV-1" source="eafishzCkPLg1H7SB-tg-21" target="eafishzCkPLg1H7SB-tg-27">
          <mxGeometry relative="1" as="geometry">
            <mxPoint x="460" y="500" as="sourcePoint" />
            <mxPoint x="550" y="500" as="targetPoint" />
            <Array as="points" />
          </mxGeometry>
        </mxCell>
        <mxCell id="eafishzCkPLg1H7SB-tg-36" value="否" style="text;html=1;resizable=0;autosize=1;align=center;verticalAlign=middle;points=[];fillColor=none;strokeColor=none;rounded=0;fontFamily=Helvetica;" vertex="1" parent="WIyWlLk6GJQsqaUBKTNV-1">
          <mxGeometry x="805" y="420" width="30" height="20" as="geometry" />
        </mxCell>
        <mxCell id="eafishzCkPLg1H7SB-tg-43" value="" style="edgeStyle=orthogonalEdgeStyle;rounded=0;orthogonalLoop=1;jettySize=auto;html=1;labelBorderColor=none;fontFamily=Helvetica;endArrow=none;" edge="1" parent="WIyWlLk6GJQsqaUBKTNV-1" source="eafishzCkPLg1H7SB-tg-32" target="eafishzCkPLg1H7SB-tg-36">
          <mxGeometry relative="1" as="geometry">
            <mxPoint x="820" y="400" as="sourcePoint" />
            <mxPoint x="820" y="470" as="targetPoint" />
          </mxGeometry>
        </mxCell>
        <mxCell id="eafishzCkPLg1H7SB-tg-54" value="" style="edgeStyle=orthogonalEdgeStyle;rounded=0;orthogonalLoop=1;jettySize=auto;html=1;labelBorderColor=none;fontFamily=Helvetica;endArrow=none;" edge="1" parent="WIyWlLk6GJQsqaUBKTNV-1" source="eafishzCkPLg1H7SB-tg-21">
          <mxGeometry relative="1" as="geometry">
            <mxPoint x="400" y="660" as="targetPoint" />
            <mxPoint x="400" y="540" as="sourcePoint" />
            <Array as="points">
              <mxPoint x="400" y="650" />
              <mxPoint x="400" y="650" />
            </Array>
          </mxGeometry>
        </mxCell>
        <mxCell id="eafishzCkPLg1H7SB-tg-56" value="否" style="edgeLabel;html=1;align=center;verticalAlign=middle;resizable=0;points=[];fontFamily=Helvetica;" vertex="1" connectable="0" parent="eafishzCkPLg1H7SB-tg-54">
          <mxGeometry x="0.78" y="-3" relative="1" as="geometry">
            <mxPoint x="3" y="3" as="offset" />
          </mxGeometry>
        </mxCell>
        <mxCell id="eafishzCkPLg1H7SB-tg-59" style="edgeStyle=orthogonalEdgeStyle;rounded=0;orthogonalLoop=1;jettySize=auto;html=1;labelBorderColor=none;fontFamily=Helvetica;" edge="1" parent="WIyWlLk6GJQsqaUBKTNV-1" source="eafishzCkPLg1H7SB-tg-57" target="eafishzCkPLg1H7SB-tg-34">
          <mxGeometry relative="1" as="geometry" />
        </mxCell>
        <mxCell id="eafishzCkPLg1H7SB-tg-60" value="否" style="edgeLabel;html=1;align=center;verticalAlign=middle;resizable=0;points=[];fontFamily=Helvetica;" vertex="1" connectable="0" parent="eafishzCkPLg1H7SB-tg-59">
          <mxGeometry x="-0.211" relative="1" as="geometry">
            <mxPoint as="offset" />
          </mxGeometry>
        </mxCell>
        <mxCell id="eafishzCkPLg1H7SB-tg-62" value="" style="edgeStyle=orthogonalEdgeStyle;rounded=0;orthogonalLoop=1;jettySize=auto;html=1;labelBorderColor=none;fontFamily=Helvetica;" edge="1" parent="WIyWlLk6GJQsqaUBKTNV-1" source="eafishzCkPLg1H7SB-tg-57" target="eafishzCkPLg1H7SB-tg-61">
          <mxGeometry relative="1" as="geometry">
            <Array as="points">
              <mxPoint x="900" y="710" />
              <mxPoint x="900" y="710" />
            </Array>
          </mxGeometry>
        </mxCell>
        <mxCell id="eafishzCkPLg1H7SB-tg-63" value="是" style="edgeLabel;html=1;align=center;verticalAlign=middle;resizable=0;points=[];fontFamily=Helvetica;" vertex="1" connectable="0" parent="eafishzCkPLg1H7SB-tg-62">
          <mxGeometry x="0.304" y="-3" relative="1" as="geometry">
            <mxPoint x="-15" y="-3" as="offset" />
          </mxGeometry>
        </mxCell>
        <mxCell id="eafishzCkPLg1H7SB-tg-57" value="是否点击" style="rhombus;whiteSpace=wrap;html=1;fontFamily=Helvetica;" vertex="1" parent="WIyWlLk6GJQsqaUBKTNV-1">
          <mxGeometry x="780" y="675" width="80" height="70" as="geometry" />
        </mxCell>
        <mxCell id="eafishzCkPLg1H7SB-tg-65" value="" style="edgeStyle=orthogonalEdgeStyle;rounded=0;orthogonalLoop=1;jettySize=auto;html=1;labelBorderColor=none;fontFamily=Helvetica;" edge="1" parent="WIyWlLk6GJQsqaUBKTNV-1" source="eafishzCkPLg1H7SB-tg-61" target="eafishzCkPLg1H7SB-tg-64">
          <mxGeometry relative="1" as="geometry" />
        </mxCell>
        <mxCell id="eafishzCkPLg1H7SB-tg-61" value="跳转至商城小程序&lt;br&gt;进行购买" style="whiteSpace=wrap;html=1;" vertex="1" parent="WIyWlLk6GJQsqaUBKTNV-1">
          <mxGeometry x="980" y="680" width="120" height="60" as="geometry" />
        </mxCell>
        <mxCell id="eafishzCkPLg1H7SB-tg-67" value="" style="edgeStyle=orthogonalEdgeStyle;rounded=0;orthogonalLoop=1;jettySize=auto;html=1;labelBorderColor=none;fontFamily=Helvetica;" edge="1" parent="WIyWlLk6GJQsqaUBKTNV-1" source="eafishzCkPLg1H7SB-tg-64" target="eafishzCkPLg1H7SB-tg-66">
          <mxGeometry relative="1" as="geometry">
            <Array as="points">
              <mxPoint x="1240" y="810" />
              <mxPoint x="1240" y="810" />
            </Array>
          </mxGeometry>
        </mxCell>
        <mxCell id="eafishzCkPLg1H7SB-tg-68" value="否" style="edgeLabel;html=1;align=center;verticalAlign=middle;resizable=0;points=[];fontFamily=Helvetica;" vertex="1" connectable="0" parent="eafishzCkPLg1H7SB-tg-67">
          <mxGeometry x="0.2533" relative="1" as="geometry">
            <mxPoint x="1" y="-16" as="offset" />
          </mxGeometry>
        </mxCell>
        <mxCell id="eafishzCkPLg1H7SB-tg-71" value="" style="edgeStyle=orthogonalEdgeStyle;rounded=0;orthogonalLoop=1;jettySize=auto;html=1;labelBorderColor=none;fontFamily=Helvetica;" edge="1" parent="WIyWlLk6GJQsqaUBKTNV-1" source="eafishzCkPLg1H7SB-tg-64">
          <mxGeometry relative="1" as="geometry">
            <mxPoint x="1360" y="710" as="targetPoint" />
          </mxGeometry>
        </mxCell>
        <mxCell id="eafishzCkPLg1H7SB-tg-72" value="是" style="edgeLabel;html=1;align=center;verticalAlign=middle;resizable=0;points=[];fontFamily=Helvetica;" vertex="1" connectable="0" parent="eafishzCkPLg1H7SB-tg-71">
          <mxGeometry x="-0.255" y="2" relative="1" as="geometry">
            <mxPoint as="offset" />
          </mxGeometry>
        </mxCell>
        <mxCell id="eafishzCkPLg1H7SB-tg-64" value="是否购买" style="rhombus;whiteSpace=wrap;html=1;" vertex="1" parent="WIyWlLk6GJQsqaUBKTNV-1">
          <mxGeometry x="1200" y="670" width="80" height="80" as="geometry" />
        </mxCell>
        <mxCell id="eafishzCkPLg1H7SB-tg-69" style="edgeStyle=orthogonalEdgeStyle;rounded=0;orthogonalLoop=1;jettySize=auto;html=1;exitX=0;exitY=0.5;exitDx=0;exitDy=0;entryX=0.5;entryY=1;entryDx=0;entryDy=0;labelBorderColor=none;fontFamily=Helvetica;" edge="1" parent="WIyWlLk6GJQsqaUBKTNV-1" source="eafishzCkPLg1H7SB-tg-66" target="eafishzCkPLg1H7SB-tg-18">
          <mxGeometry relative="1" as="geometry" />
        </mxCell>
        <mxCell id="eafishzCkPLg1H7SB-tg-66" value="关闭商城小程序" style="whiteSpace=wrap;html=1;" vertex="1" parent="WIyWlLk6GJQsqaUBKTNV-1">
          <mxGeometry x="1180" y="840" width="120" height="60" as="geometry" />
        </mxCell>
        <mxCell id="eafishzCkPLg1H7SB-tg-75" value="" style="edgeStyle=orthogonalEdgeStyle;rounded=0;orthogonalLoop=1;jettySize=auto;html=1;labelBorderColor=none;fontFamily=Helvetica;" edge="1" parent="WIyWlLk6GJQsqaUBKTNV-1" source="eafishzCkPLg1H7SB-tg-73" target="eafishzCkPLg1H7SB-tg-74">
          <mxGeometry relative="1" as="geometry" />
        </mxCell>
        <mxCell id="eafishzCkPLg1H7SB-tg-73" value="弹出窗口&lt;br&gt;&quot;恭喜获得&lt;br&gt;全场减50购物券&quot;" style="shape=parallelogram;perimeter=parallelogramPerimeter;whiteSpace=wrap;html=1;fixedSize=1;fontFamily=Helvetica;" vertex="1" parent="WIyWlLk6GJQsqaUBKTNV-1">
          <mxGeometry x="1350" y="680" width="120" height="60" as="geometry" />
        </mxCell>
        <mxCell id="eafishzCkPLg1H7SB-tg-76" style="edgeStyle=orthogonalEdgeStyle;rounded=0;orthogonalLoop=1;jettySize=auto;html=1;labelBorderColor=none;fontFamily=Helvetica;" edge="1" parent="WIyWlLk6GJQsqaUBKTNV-1" source="eafishzCkPLg1H7SB-tg-74" target="eafishzCkPLg1H7SB-tg-66">
          <mxGeometry relative="1" as="geometry">
            <mxPoint x="1600" y="892" as="targetPoint" />
            <Array as="points">
              <mxPoint x="1660" y="870" />
            </Array>
          </mxGeometry>
        </mxCell>
        <mxCell id="eafishzCkPLg1H7SB-tg-78" value="否" style="edgeLabel;html=1;align=center;verticalAlign=middle;resizable=0;points=[];fontFamily=Helvetica;" vertex="1" connectable="0" parent="eafishzCkPLg1H7SB-tg-76">
          <mxGeometry x="-0.6698" y="3" relative="1" as="geometry">
            <mxPoint x="-3" y="9" as="offset" />
          </mxGeometry>
        </mxCell>
        <mxCell id="eafishzCkPLg1H7SB-tg-80" value="" style="edgeStyle=orthogonalEdgeStyle;rounded=0;orthogonalLoop=1;jettySize=auto;html=1;labelBorderColor=none;fontFamily=Helvetica;" edge="1" parent="WIyWlLk6GJQsqaUBKTNV-1" source="eafishzCkPLg1H7SB-tg-74" target="eafishzCkPLg1H7SB-tg-79">
          <mxGeometry relative="1" as="geometry" />
        </mxCell>
        <mxCell id="eafishzCkPLg1H7SB-tg-83" value="是" style="edgeLabel;html=1;align=center;verticalAlign=middle;resizable=0;points=[];fontFamily=Helvetica;" vertex="1" connectable="0" parent="eafishzCkPLg1H7SB-tg-80">
          <mxGeometry x="-0.2267" y="-1" relative="1" as="geometry">
            <mxPoint as="offset" />
          </mxGeometry>
        </mxCell>
        <mxCell id="eafishzCkPLg1H7SB-tg-74" value="是否&lt;br&gt;点击使用" style="rhombus;whiteSpace=wrap;html=1;" vertex="1" parent="WIyWlLk6GJQsqaUBKTNV-1">
          <mxGeometry x="1620" y="670" width="80" height="80" as="geometry" />
        </mxCell>
        <mxCell id="eafishzCkPLg1H7SB-tg-90" value="" style="edgeStyle=orthogonalEdgeStyle;rounded=0;orthogonalLoop=1;jettySize=auto;html=1;labelBorderColor=none;fontFamily=Helvetica;" edge="1" parent="WIyWlLk6GJQsqaUBKTNV-1" source="eafishzCkPLg1H7SB-tg-79" target="eafishzCkPLg1H7SB-tg-85">
          <mxGeometry relative="1" as="geometry" />
        </mxCell>
        <mxCell id="eafishzCkPLg1H7SB-tg-92" value="" style="edgeStyle=orthogonalEdgeStyle;rounded=0;orthogonalLoop=1;jettySize=auto;html=1;labelBorderColor=none;fontFamily=Helvetica;" edge="1" parent="WIyWlLk6GJQsqaUBKTNV-1" source="eafishzCkPLg1H7SB-tg-79" target="eafishzCkPLg1H7SB-tg-91">
          <mxGeometry relative="1" as="geometry" />
        </mxCell>
        <mxCell id="eafishzCkPLg1H7SB-tg-79" value="显示商城首页" style="whiteSpace=wrap;html=1;" vertex="1" parent="WIyWlLk6GJQsqaUBKTNV-1">
          <mxGeometry x="1790" y="680" width="120" height="60" as="geometry" />
        </mxCell>
        <mxCell id="eafishzCkPLg1H7SB-tg-82" value="" style="edgeStyle=orthogonalEdgeStyle;rounded=0;orthogonalLoop=1;jettySize=auto;html=1;labelBorderColor=none;fontFamily=Helvetica;" edge="1" parent="WIyWlLk6GJQsqaUBKTNV-1" target="eafishzCkPLg1H7SB-tg-79">
          <mxGeometry relative="1" as="geometry">
            <mxPoint x="1760" y="710" as="sourcePoint" />
          </mxGeometry>
        </mxCell>
        <mxCell id="eafishzCkPLg1H7SB-tg-85" value="浏览界面" style="rounded=0;whiteSpace=wrap;html=1;fontFamily=Helvetica;" vertex="1" parent="WIyWlLk6GJQsqaUBKTNV-1">
          <mxGeometry x="2000" y="680" width="120" height="60" as="geometry" />
        </mxCell>
        <mxCell id="eafishzCkPLg1H7SB-tg-89" value="" style="edgeStyle=orthogonalEdgeStyle;rounded=0;orthogonalLoop=1;jettySize=auto;html=1;labelBorderColor=none;fontFamily=Helvetica;" edge="1" parent="WIyWlLk6GJQsqaUBKTNV-1" source="eafishzCkPLg1H7SB-tg-86" target="eafishzCkPLg1H7SB-tg-88">
          <mxGeometry relative="1" as="geometry" />
        </mxCell>
        <mxCell id="eafishzCkPLg1H7SB-tg-86" value="点击退出游戏" style="rounded=0;whiteSpace=wrap;html=1;" vertex="1" parent="WIyWlLk6GJQsqaUBKTNV-1">
          <mxGeometry x="-50" y="470" width="120" height="60" as="geometry" />
        </mxCell>
        <mxCell id="eafishzCkPLg1H7SB-tg-88" value="结束" style="rounded=1;whiteSpace=wrap;html=1;fontFamily=Helvetica;" vertex="1" parent="WIyWlLk6GJQsqaUBKTNV-1">
          <mxGeometry x="-50" y="600" width="120" height="60" as="geometry" />
        </mxCell>
        <mxCell id="eafishzCkPLg1H7SB-tg-93" style="edgeStyle=orthogonalEdgeStyle;rounded=0;orthogonalLoop=1;jettySize=auto;html=1;labelBorderColor=none;fontFamily=Helvetica;" edge="1" parent="WIyWlLk6GJQsqaUBKTNV-1" source="eafishzCkPLg1H7SB-tg-91" target="eafishzCkPLg1H7SB-tg-66">
          <mxGeometry relative="1" as="geometry" />
        </mxCell>
        <mxCell id="eafishzCkPLg1H7SB-tg-91" value="关闭界面" style="whiteSpace=wrap;html=1;" vertex="1" parent="WIyWlLk6GJQsqaUBKTNV-1">
          <mxGeometry x="1790" y="860" width="120" height="60" as="geometry" />
        </mxCell>
      </root>
    </mxGraphModel>
  </diagram>
</mxfile>
